<svg width="320" height="360" viewBox="0 0 320 360" fill="none" xmlns="http://www.w3.org/2000/svg">
  <rect width="320" height="360" rx="40" fill="#ffffff"/>
  <path d="M60 154L160 74L260 154V262H60V154Z" fill="#FFC40C" stroke="#FF8F00" stroke-width="10"/>
  
  <!-- dog -->
  <path d="M110 190c-10 0-18 12-18 24s8 24 18 24h4c0 0 2 18 16 18s16-18 16-18h4c10 0 18-12 18-24s-8-24-18-24h-4c0 0-2-20-16-20s-16 20-16 20h-4Z" fill="#191919"/>
  <path d="M112 188c0-8 6-14 14-14s14 6 14 14" stroke="#30B6A9" stroke-width="6" fill="none"/>
  
  <!-- cat -->
  <path d="M196 196c-10 0-18 10-18 22s8 22 18 22h3c0 0 1 16 12 16s12-16 12-16h3c10 0 18-10 18-22s-8-22-18-22h-3c0 0-1-18-12-18s-12 18-12 18h-3Z" fill="#FB6A1B"/>
  <path d="M198 194c0-7 5-12 12-12s12 5 12 12" stroke="#FFFFFF" stroke-width="5" fill="none" opacity="0.9"/>
  
  <!-- paw print / pedale -->
  <g transform="translate(72, 280)">
    <circle cx="12" cy="12" r="6" fill="#212121"/>
    <circle cx="4" cy="4" r="4" fill="#212121"/>
    <circle cx="20" cy="4" r="4" fill="#212121"/>
    <circle cx="28" cy="10" r="5" fill="#212121"/>
  </g>
  
  <g transform="translate(188, 280)">
    <circle cx="12" cy="12" r="6" fill="#212121"/>
    <circle cx="4" cy="4" r="4" fill="#212121"/>
    <circle cx="20" cy="4" r="4" fill="#212121"/>
    <circle cx="28" cy="10" r="5" fill="#212121"/>
  </g>
  
  <text x="160" y="316" font-family="Arial, Helvetica, sans-serif" font-size="34" font-weight="700" fill="#191919" text-anchor="middle">pupi</text>
  <text x="160" y="352" font-family="Arial, Helvetica, sans-serif" font-size="34" font-weight="700" fill="#FF8F00" text-anchor="middle">finder</text>
</svg>
